<svg width="18" height="21" viewBox="0 0 18 21" fill="none" xmlns="http://www.w3.org/2000/svg">
<g clip-path="url(#clip0_48_323)">
<path d="M9.0041 5.66482C6.44874 5.66482 4.38758 7.72598 4.38758 10.2813C4.38758 12.8367 6.44874 14.8979 9.0041 14.8979C11.5595 14.8979 13.6206 12.8367 13.6206 10.2813C13.6206 7.72598 11.5595 5.66482 9.0041 5.66482ZM9.0041 13.2827C7.35276 13.2827 6.00276 11.9367 6.00276 10.2813C6.00276 8.62598 7.34874 7.27999 9.0041 7.27999C10.6595 7.27999 12.0054 8.62598 12.0054 10.2813C12.0054 11.9367 10.6554 13.2827 9.0041 13.2827ZM14.8862 5.47598C14.8862 6.07464 14.4041 6.55276 13.8095 6.55276C13.2108 6.55276 12.7327 6.07062 12.7327 5.47598C12.7327 4.88133 13.2148 4.39919 13.8095 4.39919C14.4041 4.39919 14.8862 4.88133 14.8862 5.47598ZM17.9438 6.56883C17.8755 5.12642 17.5461 3.84874 16.4894 2.79607C15.4367 1.74339 14.159 1.41392 12.7166 1.3416C11.23 1.25723 6.77419 1.25723 5.28758 1.3416C3.84919 1.40991 2.57151 1.73937 1.51482 2.79205C0.45812 3.84473 0.132673 5.12241 0.0603516 6.56482C-0.0240234 8.05142 -0.0240234 12.5072 0.0603516 13.9938C0.128655 15.4362 0.45812 16.7139 1.51482 17.7666C2.57151 18.8193 3.84517 19.1487 5.28758 19.2211C6.77419 19.3054 11.23 19.3054 12.7166 19.2211C14.159 19.1528 15.4367 18.8233 16.4894 17.7666C17.542 16.7139 17.8715 15.4362 17.9438 13.9938C18.0282 12.5072 18.0282 8.05544 17.9438 6.56883ZM16.0233 15.5889C15.7099 16.3764 15.1032 16.9831 14.3117 17.3005C13.1264 17.7706 10.3139 17.6621 9.0041 17.6621C7.69428 17.6621 4.87776 17.7666 3.69651 17.3005C2.90901 16.9871 2.30232 16.3804 1.98491 15.5889C1.51482 14.4037 1.6233 11.5912 1.6233 10.2813C1.6233 8.97151 1.51883 6.15499 1.98491 4.97374C2.2983 4.18624 2.90499 3.57955 3.69651 3.26214C4.88178 2.79205 7.69428 2.90053 9.0041 2.90053C10.3139 2.90053 13.1304 2.79607 14.3117 3.26214C15.0992 3.57553 15.7059 4.18223 16.0233 4.97374C16.4934 6.15901 16.3849 8.97151 16.3849 10.2813C16.3849 11.5912 16.4934 14.4077 16.0233 15.5889Z" fill="white"/>
</g>
<defs>
<clipPath id="clip0_48_323">
<rect width="18" height="20.5714" fill="white"/>
</clipPath>
</defs>
</svg>
