<svg width="18" height="21" viewBox="0 0 18 21" fill="none" xmlns="http://www.w3.org/2000/svg">
<path d="M4.02911 17.9996H0.297321V5.98219H4.02911V17.9996ZM2.16121 4.3429C0.967902 4.3429 0 3.35451 0 2.16121C8.54116e-09 1.58802 0.227698 1.03831 0.633002 0.633002C1.03831 0.227698 1.58802 0 2.16121 0C2.73439 0 3.2841 0.227698 3.68941 0.633002C4.09471 1.03831 4.32241 1.58802 4.32241 2.16121C4.32241 3.35451 3.35411 4.3429 2.16121 4.3429ZM17.996 17.9996H14.2722V12.1496C14.2722 10.7554 14.2441 8.96745 12.332 8.96745C10.3918 8.96745 10.0945 10.4822 10.0945 12.0492V17.9996H6.3667V5.98219H9.9458V7.62147H9.99804C10.4963 6.67728 11.7133 5.68085 13.5289 5.68085C17.3057 5.68085 18 8.1679 18 11.3983V17.9996H17.996Z" fill="white"/>
</svg>
