<svg width="50" height="23" viewBox="0 0 50 23" fill="none" xmlns="http://www.w3.org/2000/svg">
<rect x="1.90283" y="20.2284" width="46.1942" height="1.90289" fill="black"/>
<rect x="48.0971" y="12.4856" width="1.90289" height="7.74278" fill="black"/>
<rect x="38.4514" y="6.77686" width="5.77428" height="1.90289" fill="black"/>
<rect x="44.2257" y="8.67981" width="1.90289" height="1.90289" fill="black"/>
<rect x="46.1286" y="10.5826" width="1.90289" height="1.90289" fill="black"/>
<rect x="19.2257" y="0.937012" width="7.67717" height="1.9685" fill="black"/>
<rect x="26.9029" y="2.90552" width="3.87139" height="1.90289" fill="black"/>
<rect x="15.3543" y="2.90552" width="3.87139" height="1.90289" fill="black"/>
<rect y="14.3884" width="1.90289" height="5.83989" fill="black"/>
<rect x="1.90283" y="12.4856" width="1.90289" height="1.90289" fill="black"/>
<rect x="3.80579" y="10.5826" width="5.83989" height="1.90289" fill="black"/>
<rect x="9.64563" y="12.4856" width="1.90289" height="1.90289" fill="black"/>
<rect x="11.5486" y="8.67981" width="1.90289" height="3.80577" fill="black"/>
<rect x="13.4514" y="4.87402" width="1.90289" height="3.80577" fill="black"/>
<rect x="30.7743" y="4.80835" width="1.90289" height="3.80577" fill="black"/>
<rect x="32.6772" y="8.67981" width="1.90289" height="1.90289" fill="black"/>
<rect x="34.5801" y="10.5826" width="1.90289" height="1.90289" fill="black"/>
<rect x="36.5486" y="8.67981" width="1.90289" height="1.90289" fill="black"/>
<rect x="1.96851" y="18.3254" width="46.1286" height="1.90289" fill="#C3E0FF"/>
<rect width="1.90289" height="3.80577" transform="matrix(-1 0 0 1 32.8084 14.5197)" fill="#C3E0FF"/>
<rect width="1.90289" height="1.90289" transform="matrix(-1 0 0 1 30.9055 16.4226)" fill="#C3E0FF"/>
<rect width="1.90289" height="3.80577" transform="matrix(-1 0 0 1 48.0971 14.5197)" fill="#C3E0FF"/>
<rect width="1.90289" height="1.90289" transform="matrix(-1 0 0 1 46.1942 16.4226)" fill="#C3E0FF"/>
<rect x="1.96851" y="14.5197" width="1.90289" height="3.80577" fill="#C3E0FF"/>
<rect x="3.87134" y="16.4861" width="1.90289" height="1.83946" fill="#C3E0FF"/>
<rect x="15.3543" y="14.5197" width="1.90289" height="3.80577" fill="#C3E0FF"/>
<rect x="17.2572" y="16.4861" width="1.90289" height="1.90289" fill="#C3E0FF"/>
<rect x="13.4514" y="12.6168" width="1.90289" height="1.90289" fill="#C3E0FF"/>
<rect x="32.8084" y="12.6168" width="1.90289" height="1.90289" fill="#C3E0FF"/>
</svg>
