<svg width="39" height="41" viewBox="0 0 39 41" fill="none" xmlns="http://www.w3.org/2000/svg">
<path d="M19.5 0.628906C8.73042 0.628906 0 9.35932 0 20.1289C0 30.8985 8.73042 39.6289 19.5 39.6289C30.2696 39.6289 39 30.8985 39 20.1289C39 9.35932 30.2696 0.628906 19.5 0.628906ZM28.5386 13.8905C28.2451 16.9739 26.9753 24.4565 26.3291 27.91C26.0558 29.3713 25.5175 29.8613 24.9965 29.9092C23.8642 30.0134 23.0042 29.1609 21.9074 28.4419C20.1911 27.3169 19.2216 26.6165 17.5556 25.5187C15.6304 24.25 16.8784 23.553 17.9756 22.4128C18.2628 22.1146 23.2522 17.5764 23.3487 17.1647C23.3608 17.1132 23.3723 16.9209 23.258 16.82C23.1437 16.719 22.9757 16.7532 22.8542 16.7806C22.6821 16.8198 19.9404 18.6319 14.629 22.2172C13.8508 22.7516 13.146 23.0119 12.5144 22.9983C11.8181 22.9833 10.4788 22.6047 9.48313 22.281C8.26195 21.8841 7.29135 21.6742 7.37587 21C7.41991 20.6488 7.90348 20.2898 8.82658 19.9228C14.5112 17.4461 18.3019 15.8132 20.1985 15.0242C25.6139 12.7717 26.7391 12.3805 27.4726 12.3674C27.6339 12.3648 27.9946 12.4047 28.2282 12.5943C28.3836 12.7293 28.4827 12.9178 28.5058 13.1224C28.5454 13.3764 28.5564 13.634 28.5386 13.8905Z" fill="#0056B3"/>
</svg>
