<svg xmlns="http://www.w3.org/2000/svg" width="43.97" height="39.988" viewBox="0 0 43.97 39.988">
  <path id="telegram-brands" d="M44.377,5.986a4.284,4.284,0,0,0-1.389.328c-.423.17-2.859,1.21-6.457,2.748S28.257,12.6,23.621,14.59c-9.272,3.972-18.383,7.881-18.383,7.881l.066-.025a4.879,4.879,0,0,0-1.107.572,3.078,3.078,0,0,0-.824.811,2.145,2.145,0,0,0-.357,1.432A3.159,3.159,0,0,0,5.248,27.73l.008,0,8.9,3.047c.227.757,2.7,9.012,3.244,10.76a5.967,5.967,0,0,0,.875,1.9,1.851,1.851,0,0,0,.471.445,1.3,1.3,0,0,0,.209.1h0c.009,0,.017,0,.025.008L18.963,44c.016.007.032.018.049.023a.709.709,0,0,0,.092.02,2.1,2.1,0,0,0,1.863-.3L21,43.707l5.469-5.072,8.875,6.92.111.051a3.594,3.594,0,0,0,3.736-.328,3.813,3.813,0,0,0,1.084-1.449l.033-.086,6.521-33.99a4.241,4.241,0,0,0,.033-2.012,2.337,2.337,0,0,0-1.02-1.4A2.588,2.588,0,0,0,44.377,5.986ZM44.43,8.02a.916.916,0,0,1,.391.041c.046.028.067.024.111.191a2.459,2.459,0,0,1-.053,1.072l0,.012L38.391,43.129a1.681,1.681,0,0,1-.459.6c-.315.256-.665.456-1.594.066l-9.705-7.568-.273-.215-.006.006-2.9-2.178L39.762,14.648a1,1,0,0,0-1.316-1.48L14.844,28.9,5.928,25.85s-.885-.493-.928-.836c0-.019-.013,0,.033-.07a1.311,1.311,0,0,1,.307-.285,3.141,3.141,0,0,1,.621-.324l.033-.012.033-.014S15.139,20.4,24.41,16.428c4.636-1.986,9.311-3.988,12.908-5.525s6.194-2.644,6.414-2.732A2.178,2.178,0,0,1,44.43,8.02ZM33.613,18.793,21.244,33.346l-.006.006q-.029.035-.055.072a1.021,1.021,0,0,0-.186.469s0,.005,0,.008l-1.611,7.246c-.027-.078-.046-.107-.074-.2v0c-.512-1.644-2.845-9.429-3.168-10.506ZM22.641,35.73,24.863,37.4,21.6,40.426Z" transform="translate(-3.001 -5.983)" fill="#fff"/>
</svg>
