<svg width="21" height="21" viewBox="0 0 21 21" fill="none" xmlns="http://www.w3.org/2000/svg">
<path d="M18.8413 6.22229C18.8547 6.40883 18.8547 6.59541 18.8547 6.78195C18.8547 12.4716 14.5241 19.0275 6.60913 19.0275C4.17067 19.0275 1.90546 18.3212 0 17.0954C0.346459 17.1354 0.679547 17.1487 1.03934 17.1487C3.05136 17.1487 4.90354 16.4691 6.38261 15.3099C4.49047 15.2699 2.90481 14.0307 2.35848 12.3251C2.625 12.365 2.89148 12.3917 3.17133 12.3917C3.55774 12.3917 3.94419 12.3384 4.30393 12.2451C2.33186 11.8454 0.852756 10.1132 0.852756 8.02116V7.96788C1.4257 8.28768 2.092 8.48754 2.79817 8.51416C1.6389 7.74131 0.879416 6.42216 0.879416 4.92977C0.879416 4.13029 1.09257 3.39742 1.46569 2.75783C3.58436 5.3695 6.76901 7.07505 10.34 7.26163C10.2734 6.94183 10.2334 6.60874 10.2334 6.27561C10.2334 3.90376 12.1522 1.97168 14.5374 1.97168C15.7766 1.97168 16.8959 2.49135 17.682 3.33081C18.6547 3.14428 19.5875 2.78449 20.4136 2.29148C20.0938 3.29087 19.4143 4.13033 18.5215 4.66329C19.3876 4.57006 20.2271 4.33016 20.9999 3.99707C20.4137 4.84983 19.6808 5.60931 18.8413 6.22229Z" fill="white"/>
</svg>
