<svg width="35" height="36" viewBox="0 0 35 36" fill="none" xmlns="http://www.w3.org/2000/svg">
<path d="M17.5 7.59375C11.8203 7.59375 7.20312 12.2109 7.19531 17.8906C7.19531 19.8359 7.74219 21.7344 8.77344 23.3672L9.01562 23.7578L7.97656 27.5547L11.875 26.5312L12.25 26.7578C13.8281 27.6953 15.6406 28.1953 17.4922 28.1953H17.5C23.1719 28.1953 27.9141 23.5781 27.9141 17.8984C27.9141 15.1484 26.7266 12.5625 24.7812 10.6172C22.8281 8.66406 20.25 7.59375 17.5 7.59375ZM23.5547 22.3125C23.2969 23.0391 22.0625 23.6953 21.4688 23.7812C20.4844 23.9297 19.7188 23.8516 17.7578 23.0078C14.6562 21.6641 12.625 18.5391 12.4688 18.3359C12.3125 18.1328 11.2031 16.6562 11.2031 15.1328C11.2031 13.6094 12 12.8594 12.2891 12.5469C12.5703 12.2344 12.9062 12.1562 13.1172 12.1562C13.3203 12.1562 13.5312 12.1562 13.7109 12.1641C13.8984 12.1719 14.1562 12.0938 14.4062 12.6953C14.6641 13.3125 15.2812 14.8359 15.3594 14.9922C15.4375 15.1484 15.4922 15.3281 15.3828 15.5312C14.7891 16.7188 14.1562 16.6719 14.4766 17.2188C15.6719 19.2734 16.8672 19.9844 18.6875 20.8984C19 21.0547 19.1797 21.0312 19.3594 20.8203C19.5391 20.6172 20.1328 19.9141 20.3359 19.6094C20.5391 19.2969 20.75 19.3516 21.0312 19.4531C21.3125 19.5547 22.8359 20.3047 23.1484 20.4609C23.4609 20.6172 23.6641 20.6953 23.7422 20.8203C23.8125 20.9688 23.8125 21.5938 23.5547 22.3125ZM31.25 0.5H3.75C1.67969 0.5 0 2.17969 0 4.25V31.75C0 33.8203 1.67969 35.5 3.75 35.5H31.25C33.3203 35.5 35 33.8203 35 31.75V4.25C35 2.17969 33.3203 0.5 31.25 0.5ZM17.4922 30.2812C15.4141 30.2812 13.375 29.7578 11.5703 28.7734L5 30.5L6.75781 24.0781C5.67188 22.2031 5.10156 20.0703 5.10156 17.8828C5.10938 11.0547 10.6641 5.5 17.4922 5.5C20.8047 5.5 23.9141 6.78906 26.2578 9.13281C28.5938 11.4766 30 14.5859 30 17.8984C30 24.7266 24.3203 30.2812 17.4922 30.2812Z" fill="#25D366"/>
</svg>
