<svg width="18" height="21" viewBox="0 0 18 21" fill="none" xmlns="http://www.w3.org/2000/svg">
<path d="M15.304 3.98262C13.6205 2.25996 11.3786 1.3125 8.99598 1.3125C4.07812 1.3125 0.0763393 5.39766 0.0763393 10.418C0.0763393 12.0217 0.486161 13.5885 1.26562 14.9707L0 19.6875L4.72902 18.4201C6.0308 19.1461 7.49732 19.5275 8.99196 19.5275H8.99598C13.9098 19.5275 18 15.4424 18 10.4221C18 7.98984 16.9875 5.70527 15.304 3.98262ZM8.99598 17.9936C7.66205 17.9936 6.35625 17.6285 5.2192 16.9395L4.95 16.7754L2.14554 17.526L2.89286 14.7328L2.71607 14.4457C1.97277 13.2398 1.58304 11.8494 1.58304 10.418C1.58304 6.24668 4.90982 2.85059 9 2.85059C10.9808 2.85059 12.8411 3.63809 14.2393 5.06953C15.6375 6.50098 16.4973 8.4 16.4933 10.4221C16.4933 14.5975 13.0821 17.9936 8.99598 17.9936ZM13.0621 12.3252C12.8411 12.2104 11.7442 11.6607 11.5393 11.5869C11.3344 11.509 11.1857 11.4721 11.0371 11.7018C10.8884 11.9314 10.4625 12.44 10.3299 12.5959C10.2013 12.7477 10.0688 12.7682 9.84777 12.6533C8.53795 11.9848 7.67813 11.4598 6.81429 9.94629C6.58527 9.54434 7.0433 9.57305 7.4692 8.70352C7.54152 8.55176 7.50536 8.42051 7.44911 8.30566C7.39286 8.19082 6.94688 7.07109 6.76205 6.61582C6.58125 6.17285 6.39643 6.23438 6.25982 6.22617C6.13125 6.21797 5.98259 6.21797 5.83393 6.21797C5.68527 6.21797 5.4442 6.27539 5.23929 6.50098C5.03437 6.73066 4.45982 7.28027 4.45982 8.4C4.45982 9.51973 5.25938 10.6025 5.36786 10.7543C5.48036 10.9061 6.93884 13.2029 9.17679 14.1914C10.5911 14.8148 11.1455 14.8682 11.8527 14.7615C12.2826 14.6959 13.1705 14.2119 13.3554 13.6787C13.5402 13.1455 13.5402 12.6902 13.4839 12.5959C13.4317 12.4934 13.283 12.4359 13.0621 12.3252Z" fill="#25D366"/>
</svg>
